name analog
datacolumns 19
datarows 49
range 0.326 0.35000000000000003
endheader
time	ground_force_vx	ground_force_vy	ground_force_vz	ground_force_px	ground_force_py	ground_force_pz	l_ground_force_vx	l_ground_force_vy	l_ground_force_vz	l_ground_force_px	l_ground_force_py	l_ground_force_pz	ground_torque_x	ground_torque_y	ground_torque_z	l_ground_torque_x	l_ground_torque_y	l_ground_torque_z
0.326	-0.0	-0.0	-0.0	-4.689399242401123	7.777713298797607	-875.8399658203125	-0.0	-0.0	-0.0	-0.0	-0.0	-0.0	-0.0	-0.0	-0.0	-0.0	-0.0	-0.0
0.3265	-0.0	-0.0	-0.0	-4.297627925872803	7.982982158660889	-875.3641357421875	-0.0	-0.0	-0.0	-0.0	-0.0	-0.0	-0.0	-0.0	-0.0	-0.0	-0.0	-0.0
0.327	-0.0	-0.0	-0.0	-4.092128276824951	8.002805709838867	-871.3863525390625	-0.0	-0.0	-0.0	-0.0	-0.0	-0.0	-0.0	-0.0	-0.0	-0.0	-0.0	-0.0
0.3275	-0.0	-0.0	-0.0	-4.389835357666016	7.126001358032227	-868.2702026367188	-0.0	-0.0	-0.0	-0.0	-0.0	-0.0	-0.0	-0.0	-0.0	-0.0	-0.0	-0.0
0.328	-0.0	-0.0	-0.0	-4.794495582580566	6.840189456939697	-866.0606689453125	-0.0	-0.0	-0.0	-0.0	-0.0	-0.0	-0.0	-0.0	-0.0	-0.0	-0.0	-0.0
0.3285	-0.0	-0.0	-0.0	-6.061463356018066	6.282866477966309	-865.5540771484375	-0.0	-0.0	-0.0	-0.0	-0.0	-0.0	-0.0	-0.0	-0.0	-0.0	-0.0	-0.0
0.329	-0.0	-0.0	-0.0	-8.380664825439453	4.678829669952393	-867.1663818359375	-0.0	-0.0	-0.0	-0.0	-0.0	-0.0	-0.0	-0.0	-0.0	-0.0	-0.0	-0.0
0.3295	-0.0	-0.0	-0.0	-10.6107816696167	2.8686656951904297	-868.0064697265625	-0.0	-0.0	-0.0	-0.0	-0.0	-0.0	-0.0	-0.0	-0.0	-0.0	-0.0	-0.0
0.33	-0.0	-0.0	-0.0	-11.70889949798584	1.4929141998291016	-866.70361328125	-0.0	-0.0	-0.0	-0.0	-0.0	-0.0	-0.0	-0.0	-0.0	-0.0	-0.0	-0.0
0.3305	-0.0	-0.0	-0.0	-11.396778106689451	-0.1002040952444076	-868.0285034179688	-0.0	-0.0	-0.0	-0.0	-0.0	-0.0	-0.0	-0.0	-0.0	-0.0	-0.0	-0.0
0.331	-0.0	-0.0	-0.0	-11.4189453125	-1.0695648193359375	-867.2551879882812	-0.0	-0.0	-0.0	-0.0	-0.0	-0.0	-0.0	-0.0	-0.0	-0.0	-0.0	-0.0
0.3315	-0.0	-0.0	-0.0	-12.03245449066162	-1.4479949474334717	-868.7792358398438	-0.0	-0.0	-0.0	-0.0	-0.0	-0.0	-0.0	-0.0	-0.0	-0.0	-0.0	-0.0
0.332	-0.0	-0.0	-0.0	-12.311050415039062	-2.156503200531006	-870.080322265625	-0.0	-0.0	-0.0	-0.0	-0.0	-0.0	-0.0	-0.0	-0.0	-0.0	-0.0	-0.0
0.3325	-0.0	-0.0	-0.0	-12.461151123046877	-3.2086944580078125	-869.59814453125	-0.0	-0.0	-0.0	-0.0	-0.0	-0.0	-0.0	-0.0	-0.0	-0.0	-0.0	-0.0
0.333	-0.0	-0.0	-0.0	-12.867871284484863	-2.8022232055664062	-871.4656372070312	-0.0	-0.0	-0.0	-0.0	-0.0	-0.0	-0.0	-0.0	-0.0	-0.0	-0.0	-0.0
0.3335	-0.0	-0.0	-0.0	-13.003332138061523	-2.8414814472198486	-871.2525634765625	-0.0	-0.0	-0.0	-0.0	-0.0	-0.0	-0.0	-0.0	-0.0	-0.0	-0.0	-0.0
0.334	-0.0	-0.0	-0.0	-13.51007080078125	-1.9216206073760984	-872.5230712890625	-0.0	-0.0	-0.0	-0.0	-0.0	-0.0	-0.0	-0.0	-0.0	-0.0	-0.0	-0.0
0.3345	-0.0	-0.0	-0.0	-15.276161193847656	-0.481920838356018	-872.8751831054688	-0.0	-0.0	-0.0	-0.0	-0.0	-0.0	-0.0	-0.0	-0.0	-0.0	-0.0	-0.0
0.335	-0.0	-0.0	-0.0	-15.947672843933104	0.6055843830108643	-871.9180908203125	-0.0	-0.0	-0.0	-0.0	-0.0	-0.0	-0.0	-0.0	-0.0	-0.0	-0.0	-0.0
0.3355	-0.0	-0.0	-0.0	-16.0972843170166	0.982746124267578	-872.3544921875	-0.0	-0.0	-0.0	-0.0	-0.0	-0.0	-0.0	-0.0	-0.0	-0.0	-0.0	-0.0
0.336	-0.0	-0.0	-0.0	-14.64916706085205	1.7639809846878052	-872.08349609375	-0.0	-0.0	-0.0	-0.0	-0.0	-0.0	-0.0	-0.0	-0.0	-0.0	-0.0	-0.0
0.3365	-0.0	-0.0	-0.0	-13.470787048339844	3.239587545394897	-869.135009765625	-0.0	-0.0	-0.0	-0.0	-0.0	-0.0	-0.0	-0.0	-0.0	-0.0	-0.0	-0.0
0.337	-0.0	-0.0	-0.0	-13.668240547180176	3.674786567687988	-866.8193969726562	-0.0	-0.0	-0.0	-0.0	-0.0	-0.0	-0.0	-0.0	-0.0	-0.0	-0.0	-0.0
0.3375	-0.0	-0.0	-0.0	-15.305936813354492	4.130534648895264	-864.3070678710938	-0.0	-0.0	-0.0	-0.0	-0.0	-0.0	-0.0	-0.0	-0.0	-0.0	-0.0	-0.0
0.338	-0.0	-0.0	-0.0	-17.069538116455078	4.39680290222168	-859.8765869140625	-0.0	-0.0	-0.0	-0.0	-0.0	-0.0	-0.0	-0.0	-0.0	-0.0	-0.0	-0.0
0.3385	-0.0	-0.0	-0.0	-17.039207458496094	4.426990032196045	-857.1258544921875	-0.0	-0.0	-0.0	-0.0	-0.0	-0.0	-0.0	-0.0	-0.0	-0.0	-0.0	-0.0
0.339	-0.0	-0.0	-0.0	-16.067882537841797	4.931763648986816	-851.319091796875	-0.0	-0.0	-0.0	-0.0	-0.0	-0.0	-0.0	-0.0	-0.0	-0.0	-0.0	-0.0
0.3395	-0.0	-0.0	-0.0	-15.57219123840332	4.476323127746582	-847.3571166992188	-0.0	-0.0	-0.0	-0.0	-0.0	-0.0	-0.0	-0.0	-0.0	-0.0	-0.0	-0.0
0.34	-0.0	-0.0	-0.0	-15.423582077026367	4.089828968048096	-844.2182006835938	-0.0	-0.0	-0.0	-0.0	-0.0	-0.0	-0.0	-0.0	-0.0	-0.0	-0.0	-0.0
0.3405	-0.0	-0.0	-0.0	-15.7505521774292	3.0505337715148926	-842.3729248046875	-0.0	-0.0	-0.0	-0.0	-0.0	-0.0	-0.0	-0.0	-0.0	-0.0	-0.0	-0.0
0.341	-0.0	-0.0	-0.0	-15.027112007141112	1.7931939363479614	-841.58935546875	-0.0	-0.0	-0.0	-0.0	-0.0	-0.0	-0.0	-0.0	-0.0	-0.0	-0.0	-0.0
0.3415	-0.0	-0.0	-0.0	-13.878281593322754	0.9503153562545776	-840.0576171875	-0.0	-0.0	-0.0	-0.0	-0.0	-0.0	-0.0	-0.0	-0.0	-0.0	-0.0	-0.0
0.342	-0.0	-0.0	-0.0	-13.203155517578123	-0.2880066633224487	-839.9757690429688	-0.0	-0.0	-0.0	-0.0	-0.0	-0.0	-0.0	-0.0	-0.0	-0.0	-0.0	-0.0
0.3425	-0.0	-0.0	-0.0	-11.826868057250977	-0.9899582266807556	-839.8173828125	-0.0	-0.0	-0.0	-0.0	-0.0	-0.0	-0.0	-0.0	-0.0	-0.0	-0.0	-0.0
0.343	-0.0	-0.0	-0.0	-10.963438034057615	-1.3484594821929932	-840.884033203125	-0.0	-0.0	-0.0	-0.0	-0.0	-0.0	-0.0	-0.0	-0.0	-0.0	-0.0	-0.0
0.3435	-0.0	-0.0	-0.0	-9.979791641235352	-1.2079447507858276	-839.5458374023438	-0.0	-0.0	-0.0	-0.0	-0.0	-0.0	-0.0	-0.0	-0.0	-0.0	-0.0	-0.0
0.34400000000000003	-0.0	-0.0	-0.0	-9.86242961883545	-0.6052577495574951	-837.5108032226562	-0.0	-0.0	-0.0	-0.0	-0.0	-0.0	-0.0	-0.0	-0.0	-0.0	-0.0	-0.0
0.34450000000000003	-0.0	-0.0	-0.0	-10.05301284790039	-0.1290706396102905	-837.8644409179688	-0.0	-0.0	-0.0	-0.0	-0.0	-0.0	-0.0	-0.0	-0.0	-0.0	-0.0	-0.0
0.34500000000000003	-0.0	-0.0	-0.0	-8.705907821655273	1.091199278831482	-837.7427978515625	-0.0	-0.0	-0.0	-0.0	-0.0	-0.0	-0.0	-0.0	-0.0	-0.0	-0.0	-0.0
0.34550000000000003	-0.0	-0.0	-0.0	-7.622929096221924	1.4934791326522827	-838.2906494140625	-0.0	-0.0	-0.0	-0.0	-0.0	-0.0	-0.0	-0.0	-0.0	-0.0	-0.0	-0.0
0.34600000000000003	-0.0	-0.0	-0.0	-7.694055557250977	1.5462019443511963	-839.7391357421875	-0.0	-0.0	-0.0	-0.0	-0.0	-0.0	-0.0	-0.0	-0.0	-0.0	-0.0	-0.0
0.34650000000000003	-0.0	-0.0	-0.0	-7.5248122215271	1.9788204431533811	-839.47314453125	-0.0	-0.0	-0.0	-0.0	-0.0	-0.0	-0.0	-0.0	-0.0	-0.0	-0.0	-0.0
0.34700000000000003	-0.0	-0.0	-0.0	-6.909343242645264	2.821009397506714	-835.53564453125	-0.0	-0.0	-0.0	-0.0	-0.0	-0.0	-0.0	-0.0	-0.0	-0.0	-0.0	-0.0
0.34750000000000003	-0.0	-0.0	-0.0	-6.494637489318848	3.5026562213897705	-833.6286010742188	-0.0	-0.0	-0.0	-0.0	-0.0	-0.0	-0.0	-0.0	-0.0	-0.0	-0.0	-0.0
0.34800000000000003	-0.0	-0.0	-0.0	-5.700685501098633	4.626001834869385	-832.0919189453125	-0.0	-0.0	-0.0	-0.0	-0.0	-0.0	-0.0	-0.0	-0.0	-0.0	-0.0	-0.0
0.34850000000000003	-0.0	-0.0	-0.0	-5.464582443237305	5.784738540649414	-830.7138061523438	-0.0	-0.0	-0.0	-0.0	-0.0	-0.0	-0.0	-0.0	-0.0	-0.0	-0.0	-0.0
0.34900000000000003	-0.0	-0.0	-0.0	-5.107934474945068	6.394474029541016	-828.913330078125	-0.0	-0.0	-0.0	-0.0	-0.0	-0.0	-0.0	-0.0	-0.0	-0.0	-0.0	-0.0
0.34950000000000003	-0.0	-0.0	-0.0	-5.214519500732422	7.469788551330566	-826.6346435546875	-0.0	-0.0	-0.0	-0.0	-0.0	-0.0	-0.0	-0.0	-0.0	-0.0	-0.0	-0.0
0.35000000000000003	-0.0	-0.0	-0.0	-5.7668867111206055	7.518721580505371	-824.4478149414062	-0.0	-0.0	-0.0	-0.0	-0.0	-0.0	-0.0	-0.0	-0.0	-0.0	-0.0	-0.0
